/usr/bin/ffmpeg -hide_banner -y -y -r 12 -start_number 0 -start_number_range 1 -i /home/ricardenas/proyectos/pagina-neocities/recursos/imagenes/imagenes-encabezado%04d.png -i /home/ricardenas/proyectos/pagina-neocities/recursos/imagenes/KritaTempPalettegen_%06d.png -lavfi scale=w=1000:h=333:flags=neighbor[0:v];[0:v][1:v]paletteuse=dither=sierra2_4a:diff_mode=none -f gif -loop 0 -gifflags +transdiff /home/ricardenas/proyectos/pagina-neocities/recursos/imagenes/imagenes-encabezado.gif
=====================================================
Input #0, image2, from '/home/ricardenas/proyectos/pagina-neocities/recursos/imagenes/imagenes-encabezado%04d.png':
  Duration: 00:00:00.16, start: 0.000000, bitrate: N/A
  Stream #0:0: Video: png, rgba(pc, gbr/unknown/unknown), 150x50 [SAR 11811:11811 DAR 3:1], 25 fps, 25 tbr, 25 tbn
Input #1, image2, from '/home/ricardenas/proyectos/pagina-neocities/recursos/imagenes/KritaTempPalettegen_%06d.png':
  Duration: 00:00:00.04, start: 0.000000, bitrate: N/A
  Stream #1:0: Video: png, rgba(pc, gbr/unknown/unknown), 16x16 [SAR 1:1 DAR 1:1], 25 fps, 25 tbr, 25 tbn
Stream mapping:
  Stream #0:0 (png) -> scale:default
  Stream #1:0 (png) -> paletteuse
  paletteuse:default -> Stream #0:0 (gif)
Press [q] to stop, [?] for help
Output #0, gif, to '/home/ricardenas/proyectos/pagina-neocities/recursos/imagenes/imagenes-encabezado.gif':
  Metadata:
    encoder         : Lavf62.3.100
  Stream #0:0: Video: gif, pal8(pc, gbr/unknown/unknown, progressive), 1000x333 [SAR 999:1000 DAR 3:1], q=2-31, 200 kb/s, 12 fps, 100 tbn
    Metadata:
      encoder         : Lavc62.11.100 gif
[out#0/gif @ 0x55db6c747c40] video:11KiB audio:0KiB subtitle:0KiB other streams:0KiB global headers:0KiB muxing overhead: 0.172265%
frame=    4 fps=0.0 q=-0.0 Lsize=      11KiB time=00:00:00.33 bitrate= 279.1kbits/s speed=8.69x elapsed=0:00:00.03    
